<?xml version="1.0" encoding="UTF-8"?>
<svg xmlns="http://www.w3.org/2000/svg" xmlns:xlink="http://www.w3.org/1999/xlink" width="150px" height="150px" viewBox="0 0 150 150" version="1.1">
<g id="surface1">
<path style=" stroke:none;fill-rule:nonzero;fill:rgb(3.529412%,41.176471%,85.490196%);fill-opacity:1;" d="M 75 0 C 33.5625 0 0 33.5625 0 75 C 0 116.4375 33.5625 150 75 150 C 116.4375 150 150 116.4375 150 75 C 150 33.5625 116.4375 0 75 0 Z M 75 18.75 C 81.1875 18.75 87 20.4375 92.625 22.3125 C 88.6875 26.0625 84.1875 29.4375 84.9375 32.8125 C 85.6875 36.1875 97.875 35.25 97.875 42.1875 C 97.875 47.25 90 48.75 95.4375 54.5625 C 102 61.125 83.4375 72.9375 83.0625 81.5625 C 82.5 97.125 98.8125 99.75 111.75 99.75 C 119.625 99.75 121.6875 103.5 121.125 108 C 111 122.4375 93.75 131.4375 74.8125 131.4375 C 67.6875 131.4375 61.125 129.75 54.9375 127.3125 C 59.0625 119.0625 49.6875 102.75 40.875 97.5 C 36.5625 93.1875 27.375 94.875 22.125 92.8125 C 20.4375 87.75 18.75 82.6875 18.5625 77.0625 C 19.125 76.125 20.0625 75.375 21.5625 75.375 C 25.125 75.375 30 82.5 32.625 81.75 C 36 81 18.75 57.1875 26.8125 52.5 C 30.5625 50.25 38.0625 59.8125 35.625 49.5 C 33.375 39.9375 42.375 44.25 48 41.8125 C 52.875 39.75 56.4375 34.125 50.4375 30.75 C 49.3125 30.1875 48 28.875 46.3125 27.1875 C 54.75 22.125 64.5 18.9375 75 18.9375 Z M 118.3125 39.1875 C 121.6875 43.3125 124.3125 47.8125 126.5625 52.6875 C 126.5625 52.875 126.5625 53.0625 126.5625 53.25 C 125.8125 54.5625 124.5 55.3125 122.4375 57.375 C 117.1875 62.625 116.4375 53.4375 114.1875 51.5625 C 111.75 49.3125 102.9375 51.9375 101.8125 49.125 C 100.5 45.75 111.1875 41.25 118.3125 39.1875 Z M 118.3125 39.1875 "/>
</g>
</svg>
